<svg width="50" height="50" viewBox="0 0 46 50" fill="none" xmlns="http://www.w3.org/2000/svg">
<path d="M20.9683 0.531118C22.2027 -0.175443 23.8105 -0.178634 25.0438 0.531118C31.2486 4.03715 37.4553 7.53768 43.659 11.0458C44.8259 11.7031 45.6064 13.0017 45.5945 14.3462V35.4398C45.6032 36.84 44.7456 38.1696 43.5145 38.812C37.3301 42.2987 31.1489 45.7896 24.9656 49.2763C23.7057 49.9967 22.0656 49.9412 20.845 49.1618C18.9909 48.087 17.1337 47.0175 15.2794 45.9437C14.9005 45.7178 14.4734 45.538 14.2058 45.1707C14.4424 44.8519 14.8652 44.8121 15.2089 44.673C15.9828 44.4269 16.6936 44.0318 17.4046 43.6485C17.5844 43.5254 17.8039 43.5726 17.9762 43.6827C19.5617 44.5918 21.1331 45.5272 22.7239 46.4276C23.0633 46.6235 23.4069 46.3634 23.697 46.2017C29.7658 42.7717 35.842 39.3547 41.9097 35.9237C42.1346 35.8155 42.2589 35.5769 42.2406 35.3306C42.2449 28.3723 42.2417 21.4127 42.2427 14.4543C42.2684 14.1749 42.1067 13.918 41.8541 13.8036C35.6911 10.3329 29.5314 6.85683 23.3695 3.3852C23.2627 3.3118 23.1363 3.27242 23.0067 3.27223C22.8772 3.27204 22.7506 3.31105 22.6436 3.38413C16.4817 6.85683 10.323 10.3361 4.16116 13.8067C3.90939 13.9212 3.74042 14.1738 3.77038 14.4543C3.77145 21.4127 3.77038 28.3723 3.77038 35.3316C3.7597 35.4518 3.78609 35.5724 3.846 35.6771C3.90592 35.7818 3.99648 35.8656 4.10549 35.9173C5.74982 36.8497 7.39627 37.7756 9.04166 38.7049C9.96861 39.2038 11.1067 39.5003 12.128 39.118C13.0292 38.7948 13.661 37.8751 13.6438 36.9182C13.6523 30.0004 13.6395 23.0816 13.6502 16.165C13.6277 15.8579 13.919 15.6042 14.2175 15.6331C15.0076 15.6277 15.7988 15.6224 16.5888 15.6352C16.9186 15.6277 17.1456 15.9584 17.1048 16.2678C17.1016 23.2293 17.1133 30.191 17.0995 37.1526C17.1016 39.0079 16.3394 41.0267 14.6232 41.9345C12.509 43.0297 9.89592 42.7974 7.80726 41.7473C5.99911 40.8448 4.27357 39.7797 2.49751 38.8129C1.26329 38.174 0.409922 36.8391 0.41861 35.44V14.3462C0.405666 12.9738 1.21719 11.6517 2.42038 11.004C8.60372 7.51445 14.786 4.02225 20.9683 0.531118Z" fill="#8CC84B"/>
<path d="M26.3626 15.1428C29.0594 14.9692 31.9465 15.04 34.3732 16.3685C36.2521 17.3866 37.2938 19.5233 37.327 21.6107C37.2745 21.8923 36.9801 22.0476 36.7114 22.0283C35.9289 22.0272 35.1463 22.0389 34.3638 22.023C34.0319 22.0357 33.839 21.7297 33.7973 21.4363C33.5725 20.4375 33.0278 19.4483 32.0878 18.9666C30.6447 18.2441 28.9715 18.2804 27.3979 18.2955C26.2491 18.3565 25.0138 18.4559 24.0406 19.1315C23.2934 19.6432 23.0665 20.6762 23.3332 21.5081C23.5846 22.1054 24.2741 22.2981 24.8383 22.4758C28.0883 23.3258 31.5323 23.2412 34.7202 24.3598C36.0401 24.8159 37.3312 25.7024 37.783 27.0843C38.3739 28.9364 38.1149 31.1503 36.7972 32.6371C35.7286 33.8607 34.1722 34.5267 32.6199 34.8884C30.5548 35.3489 28.4117 35.3606 26.3145 35.1561C24.3426 34.9313 22.2904 34.4132 20.7681 33.0696C19.4663 31.9393 18.8305 30.1781 18.8936 28.4783C18.9087 28.1912 19.1945 27.991 19.4695 28.0146C20.2575 28.0082 21.0454 28.0061 21.8333 28.0157C22.1481 27.9932 22.3814 28.2652 22.3975 28.5618C22.5429 29.5134 22.9005 30.5121 23.7303 31.0763C25.3317 32.1095 27.3411 32.0387 29.1748 32.0676C30.694 32.0003 32.3993 31.9799 33.639 30.9758C34.2931 30.4031 34.4869 29.445 34.3101 28.6207C34.1186 27.9247 33.3906 27.6004 32.7654 27.3884C29.5571 26.3735 26.0747 26.7418 22.8973 25.5941C21.6075 25.1382 20.3601 24.2763 19.8645 22.9512C19.1731 21.0756 19.4899 18.7558 20.9457 17.3191C22.3653 15.89 24.4144 15.3398 26.3626 15.1428Z" fill="#8CC84B"/>
</svg>
